<svg width="1024" height="1024" viewBox="0 0 1024 1024" fill="none" xmlns="http://www.w3.org/2000/svg">
<g clip-path="url(#clip0_9_8)">
<path d="M512 962C263.211 962 62 760.881 62 512C62 263.119 263.211 62 512 62C760.881 62 962 263.119 962 512C962 760.881 760.881 962 512 962Z" fill="white"/>
<g filter="url(#filter0_i_9_8)">
<path d="M512.5 924C284.444 924 100 739.641 100 511.5C100 283.359 284.444 99 512.5 99C740.641 99 925 283.359 925 511.5C925 739.641 740.641 924 512.5 924Z" fill="url(#paint0_linear_9_8)"/>
</g>
<g filter="url(#filter1_d_9_8)">
<path d="M138.133 443.384H238.213C242.053 443.384 244.873 443.864 246.673 444.824C248.473 445.664 249.673 447.044 250.273 448.964C250.873 450.884 251.173 453.404 251.173 456.524C251.173 459.644 250.873 462.164 250.273 464.084C249.673 465.884 248.653 467.144 247.213 467.864C245.053 468.944 241.993 469.484 238.033 469.484H203.653V560.024C203.653 562.784 203.533 564.824 203.293 566.144C203.173 567.464 202.633 569.024 201.673 570.824C200.833 572.504 199.273 573.704 196.993 574.424C194.713 575.144 191.713 575.504 187.993 575.504C184.273 575.504 181.273 575.144 178.993 574.424C176.833 573.704 175.273 572.504 174.313 570.824C173.473 569.024 172.933 567.464 172.693 566.144C172.573 564.704 172.513 562.604 172.513 559.844V469.484H137.953C134.113 469.484 131.293 469.064 129.493 468.224C127.693 467.264 126.493 465.824 125.893 463.904C125.293 461.984 124.993 459.464 124.993 456.344C124.993 453.224 125.293 450.764 125.893 448.964C126.493 447.044 127.513 445.724 128.953 445.004C131.113 443.924 134.173 443.384 138.133 443.384ZM261.153 496.484C261.153 493.724 261.213 491.684 261.333 490.364C261.573 488.924 262.113 487.304 262.953 485.504C264.633 482.384 269.313 480.824 276.993 480.824C282.753 480.824 286.833 481.844 289.233 483.884C291.273 485.564 292.353 488.144 292.473 491.624C292.593 492.824 292.653 494.564 292.653 496.844V559.844C292.653 562.604 292.533 564.704 292.293 566.144C292.173 567.464 291.633 569.024 290.673 570.824C289.113 573.944 284.493 575.504 276.813 575.504C269.253 575.504 264.633 573.884 262.953 570.644C262.113 568.844 261.573 567.284 261.333 565.964C261.213 564.644 261.153 562.544 261.153 559.664V496.484ZM290.673 463.184C289.833 464.864 288.273 466.064 285.993 466.784C283.713 467.504 280.653 467.864 276.813 467.864C273.093 467.864 270.093 467.504 267.813 466.784C265.533 466.064 263.913 464.804 262.953 463.004C262.113 461.204 261.573 459.644 261.333 458.324C261.213 456.884 261.153 454.784 261.153 452.024C261.153 449.264 261.213 447.224 261.333 445.904C261.573 444.464 262.113 442.904 262.953 441.224C264.633 437.984 269.313 436.364 276.993 436.364C284.553 436.364 289.113 437.984 290.673 441.224C291.633 443.024 292.173 444.644 292.293 446.084C292.533 447.404 292.653 449.444 292.653 452.204C292.653 454.964 292.533 457.064 292.293 458.504C292.173 459.824 291.633 461.384 290.673 463.184ZM336.732 528.164C336.732 533.204 338.412 537.164 341.772 540.044C345.132 542.804 348.672 544.184 352.392 544.184C356.232 544.184 359.772 543.104 363.012 540.944C366.372 538.664 369.072 537.524 371.112 537.524C374.712 537.524 379.092 540.704 384.252 547.064C387.012 550.544 388.392 553.664 388.392 556.424C388.392 560.984 385.092 565.244 378.492 569.204C371.652 574.004 363.252 576.404 353.292 576.404C342.132 576.404 331.392 572.384 321.072 564.344C316.152 560.504 312.132 555.404 309.012 549.044C305.892 542.564 304.332 535.484 304.332 527.804C304.332 520.004 305.892 512.984 309.012 506.744C312.132 500.384 316.152 495.284 321.072 491.444C331.032 483.524 341.652 479.564 352.932 479.564C357.492 479.564 361.932 480.224 366.252 481.544C370.572 482.744 373.752 483.944 375.792 485.144L378.672 486.944C380.832 488.384 382.512 489.524 383.712 490.364C386.832 492.764 388.392 495.524 388.392 498.644C388.392 501.644 387.132 505.064 384.612 508.904C380.292 515.504 376.152 518.804 372.192 518.804C369.912 518.804 366.672 517.484 362.472 514.844C360.312 512.804 357.192 511.784 353.112 511.784C349.152 511.784 345.432 513.224 341.952 516.104C338.472 518.984 336.732 523.004 336.732 528.164ZM455.82 527.984L479.76 547.784C482.76 550.304 484.62 552.224 485.34 553.544C486.18 554.864 486.6 556.124 486.6 557.324C486.6 560.204 484.74 564.104 481.02 569.024C476.94 574.064 473.34 576.584 470.22 576.584C467.58 576.584 463.92 574.844 459.24 571.364L457.44 570.104C454.68 567.824 450.42 563.864 444.66 558.224C438.9 552.464 434.52 548.384 431.52 545.984V559.844C431.52 562.604 431.4 564.704 431.16 566.144C431.04 567.464 430.5 569.024 429.54 570.824C427.98 573.944 423.36 575.504 415.68 575.504C408.12 575.504 403.5 573.884 401.82 570.644C400.98 568.844 400.44 567.284 400.2 565.964C400.08 564.524 400.02 562.424 400.02 559.664V451.844C400.02 449.084 400.08 447.044 400.2 445.724C400.44 444.284 400.98 442.664 401.82 440.864C403.5 437.624 408.18 436.004 415.86 436.004C421.62 436.004 425.7 437.024 428.1 439.064C430.14 440.744 431.22 443.384 431.34 446.984C431.46 448.064 431.52 449.744 431.52 452.024V509.084C433.68 507.284 436.92 504.224 441.24 499.904C445.68 495.584 448.98 492.524 451.14 490.724L453.3 489.284C457.5 486.044 461.1 484.424 464.1 484.424C467.1 484.424 470.52 486.884 474.36 491.804C478.32 496.604 480.3 500.384 480.3 503.144C480.3 505.904 478.08 509.144 473.64 512.864L455.82 527.984ZM582.515 516.824C582.515 524.144 580.655 529.604 576.935 533.204C573.335 536.684 569.315 538.424 564.875 538.424H522.215C522.215 541.784 524.195 544.604 528.155 546.884C532.115 549.164 536.075 550.304 540.035 550.304C546.995 550.304 552.455 549.584 556.415 548.144L558.395 547.424C561.275 546.104 563.675 545.444 565.595 545.444C569.435 545.444 572.735 548.144 575.495 553.544C577.055 556.784 577.835 559.544 577.835 561.824C577.835 572.504 565.055 577.844 539.495 577.844C530.615 577.844 522.695 576.344 515.735 573.344C508.895 570.224 503.555 566.144 499.715 561.104C492.155 551.384 488.375 540.524 488.375 528.524C488.375 513.404 493.235 501.344 502.955 492.344C512.795 483.224 525.035 478.664 539.675 478.664C556.355 478.664 568.595 484.544 576.395 496.304C580.475 502.544 582.515 509.384 582.515 516.824ZM544.535 522.044C549.095 522.044 551.375 520.124 551.375 516.284C551.375 513.524 550.295 511.304 548.135 509.624C546.095 507.944 543.095 507.104 539.135 507.104C535.295 507.104 531.455 508.724 527.615 511.964C523.775 515.084 521.855 518.444 521.855 522.044H544.535ZM647.581 512.504L635.881 511.784V536.624C635.881 539.864 636.361 542.204 637.321 543.644C638.401 545.084 640.321 545.804 643.081 545.804C645.961 545.804 648.121 545.924 649.561 546.164C651.121 546.284 652.741 546.824 654.421 547.784C657.181 549.344 658.561 553.364 658.561 559.844C658.561 567.404 656.881 572.024 653.521 573.704C651.721 574.544 650.101 575.084 648.661 575.324C647.341 575.444 645.361 575.504 642.721 575.504C630.241 575.504 620.761 572.684 614.281 567.044C607.801 561.404 604.561 551.864 604.561 538.424V511.784C602.281 512.144 599.821 512.324 597.181 512.324C594.541 512.324 592.321 511.304 590.521 509.264C588.841 507.224 588.001 503.744 588.001 498.824C588.001 493.904 588.301 490.364 588.901 488.204C589.501 485.924 590.341 484.304 591.421 483.344C593.341 481.784 595.741 481.004 598.621 481.004L604.561 481.724V463.184C604.561 460.424 604.621 458.384 604.741 457.064C604.981 455.744 605.581 454.304 606.541 452.744C608.101 449.744 612.721 448.244 620.401 448.244C628.561 448.244 633.421 450.464 634.981 454.904C635.581 456.824 635.881 459.884 635.881 464.084V481.724C641.161 481.244 645.121 481.004 647.761 481.004C650.521 481.004 652.561 481.124 653.881 481.364C655.321 481.484 656.941 482.024 658.741 482.984C661.861 484.544 663.421 489.164 663.421 496.844C663.421 504.404 661.801 509.024 658.561 510.704C656.761 511.544 655.141 512.084 653.701 512.324C652.381 512.444 650.341 512.504 647.581 512.504ZM673.36 496.484C673.36 493.724 673.42 491.684 673.54 490.364C673.78 488.924 674.32 487.304 675.16 485.504C676.84 482.384 681.52 480.824 689.2 480.824C694.96 480.824 699.04 481.844 701.44 483.884C703.48 485.564 704.56 488.144 704.68 491.624C704.8 492.824 704.86 494.564 704.86 496.844V559.844C704.86 562.604 704.74 564.704 704.5 566.144C704.38 567.464 703.84 569.024 702.88 570.824C701.32 573.944 696.7 575.504 689.02 575.504C681.46 575.504 676.84 573.884 675.16 570.644C674.32 568.844 673.78 567.284 673.54 565.964C673.42 564.644 673.36 562.544 673.36 559.664V496.484ZM702.88 463.184C702.04 464.864 700.48 466.064 698.2 466.784C695.92 467.504 692.86 467.864 689.02 467.864C685.3 467.864 682.3 467.504 680.02 466.784C677.74 466.064 676.12 464.804 675.16 463.004C674.32 461.204 673.78 459.644 673.54 458.324C673.42 456.884 673.36 454.784 673.36 452.024C673.36 449.264 673.42 447.224 673.54 445.904C673.78 444.464 674.32 442.904 675.16 441.224C676.84 437.984 681.52 436.364 689.2 436.364C696.76 436.364 701.32 437.984 702.88 441.224C703.84 443.024 704.38 444.644 704.5 446.084C704.74 447.404 704.86 449.444 704.86 452.204C704.86 454.964 704.74 457.064 704.5 458.504C704.38 459.824 703.84 461.384 702.88 463.184ZM774.679 480.824C782.959 480.824 787.819 483.104 789.259 487.664C789.979 489.944 790.339 492.944 790.339 496.664C790.339 500.384 789.919 503.384 789.079 505.664C788.359 507.824 787.159 509.384 785.479 510.344C782.959 511.784 779.299 512.504 774.499 512.504L762.979 511.784V560.024C762.979 564.584 762.379 568.004 761.179 570.284C760.099 572.444 758.359 573.884 755.959 574.604C753.679 575.324 750.679 575.684 746.959 575.684C743.239 575.684 740.239 575.324 737.959 574.604C735.799 573.764 734.239 572.504 733.279 570.824C732.319 569.024 731.719 567.404 731.479 565.964C731.359 564.524 731.299 562.424 731.299 559.664V511.964H724.819C721.699 511.724 719.479 511.004 718.159 509.804C715.879 507.524 714.739 503.144 714.739 496.664C714.739 486.824 718.279 481.904 725.359 481.904H731.299V472.364C731.299 463.124 734.599 454.784 741.199 447.344C747.799 439.784 757.339 436.004 769.819 436.004C772.579 436.004 774.619 436.124 775.939 436.364C777.379 436.484 778.999 437.024 780.799 437.984C784.039 439.544 785.659 444.164 785.659 451.844C785.659 457.604 784.639 461.744 782.599 464.264C780.919 466.184 778.279 467.264 774.679 467.504C773.599 467.504 771.919 467.504 769.639 467.504C765.199 467.504 762.979 469.004 762.979 472.004V481.904L774.679 480.824ZM888.474 481.724C895.554 484.844 899.094 488.624 899.094 493.064C899.094 495.224 898.614 497.264 897.654 499.184C896.694 501.104 896.214 502.124 896.214 502.244L849.054 607.724C848.094 610.004 847.254 611.744 846.534 612.944C845.934 614.144 844.914 615.284 843.474 616.364C842.034 617.444 840.234 617.984 838.074 617.984C835.914 617.984 832.734 617.084 828.534 615.284C821.454 612.164 817.914 608.444 817.914 604.124C817.914 601.244 823.674 587.504 835.194 562.904L799.374 502.604C796.974 498.644 795.774 495.704 795.774 493.784C795.774 489.944 799.014 486.104 805.494 482.264C809.574 479.864 812.754 478.664 815.034 478.664C817.314 478.664 819.174 479.144 820.614 480.104C822.054 481.064 823.074 482.084 823.674 483.164C824.394 484.124 827.694 489.704 833.574 499.904C839.574 509.984 845.274 519.404 850.674 528.164C851.274 526.244 854.514 518.864 860.394 506.024C866.274 493.064 869.394 486.164 869.754 485.324C870.234 484.484 870.954 483.464 871.914 482.264C873.474 480.224 875.634 479.204 878.394 479.204C881.274 479.204 884.634 480.044 888.474 481.724Z" fill="white"/>
</g>
</g>
<defs>
<filter id="filter0_i_9_8" x="100" y="99" width="825" height="829" filterUnits="userSpaceOnUse" color-interpolation-filters="sRGB">
<feFlood flood-opacity="0" result="BackgroundImageFix"/>
<feBlend mode="normal" in="SourceGraphic" in2="BackgroundImageFix" result="shape"/>
<feColorMatrix in="SourceAlpha" type="matrix" values="0 0 0 0 0 0 0 0 0 0 0 0 0 0 0 0 0 0 127 0" result="hardAlpha"/>
<feOffset dy="4"/>
<feGaussianBlur stdDeviation="2"/>
<feComposite in2="hardAlpha" operator="arithmetic" k2="-1" k3="1"/>
<feColorMatrix type="matrix" values="0 0 0 0 0 0 0 0 0 0 0 0 0 0 0 0 0 0 0.25 0"/>
<feBlend mode="normal" in2="shape" result="effect1_innerShadow_9_8"/>
</filter>
<filter id="filter1_d_9_8" x="121.993" y="435.004" width="784.101" height="191.98" filterUnits="userSpaceOnUse" color-interpolation-filters="sRGB">
<feFlood flood-opacity="0" result="BackgroundImageFix"/>
<feColorMatrix in="SourceAlpha" type="matrix" values="0 0 0 0 0 0 0 0 0 0 0 0 0 0 0 0 0 0 127 0" result="hardAlpha"/>
<feMorphology radius="1" operator="dilate" in="SourceAlpha" result="effect1_dropShadow_9_8"/>
<feOffset dx="2" dy="4"/>
<feGaussianBlur stdDeviation="2"/>
<feComposite in2="hardAlpha" operator="out"/>
<feColorMatrix type="matrix" values="0 0 0 0 0 0 0 0 0 0 0 0 0 0 0 0 0 0 0.75 0"/>
<feBlend mode="normal" in2="BackgroundImageFix" result="effect1_dropShadow_9_8"/>
<feBlend mode="normal" in="SourceGraphic" in2="effect1_dropShadow_9_8" result="shape"/>
</filter>
<linearGradient id="paint0_linear_9_8" x1="265.625" y1="174.625" x2="811.875" y2="805.875" gradientUnits="userSpaceOnUse">
<stop stop-color="#FBE648"/>
<stop offset="0.0001" stop-color="#FB8F24"/>
<stop offset="0.595" stop-color="#FB6A15"/>
</linearGradient>
<clipPath id="clip0_9_8">
<rect width="900" height="900" fill="white" transform="translate(62 62)"/>
</clipPath>
</defs>
</svg>
